<svg xmlns="http://www.w3.org/2000/svg" xmlns:xlink="http://www.w3.org/1999/xlink" width="56" height="56" viewBox="0 0 56 56"><defs><style>.a{fill:url(#a);}.b{clip-path:url(#b);}</style><linearGradient id="a" x1="0.5" x2="0.5" y2="1" gradientUnits="objectBoundingBox"><stop offset="0" stop-color="#1b97e0"/><stop offset="1" stop-color="#25bfdd"/></linearGradient><clipPath id="b"><rect class="a" width="56" height="56" transform="translate(154 24)"/></clipPath></defs><g class="b" transform="translate(-154 -24)"><g transform="translate(154 24)"><path class="a" d="M41.548.9V2.712h3.241l-18.6,18.6-9.028-9.039L5.688,23.745l1.268,1.279,10.208-10.2,9.028,9.028L46.068,3.991V7.22h1.808V.9Z"/><path class="a" d="M54.192,53.288h0V13.548H45.164v39.74H43.356V18.972H34.328V53.3H32.52V31.616H23.48V53.288H21.672v-27.1H12.644v27.1H10.836V40.644H1.808V53.288H0V55.1H56V53.288H54.192Zm-45.153,0H3.616V42.452H9.039Zm10.836,0H14.452V28h5.424Zm10.836.011H25.288V33.424h5.424Zm10.836,0H36.124V20.78h5.424ZM52.4,53.288H46.972V15.356H52.4Z"/></g></g></svg>