<svg xmlns="http://www.w3.org/2000/svg" xmlns:xlink="http://www.w3.org/1999/xlink" width="56" height="56" viewBox="0 0 56 56"><defs><style>.a{fill:url(#a);}</style><linearGradient id="a" x1="0.5" x2="0.5" y2="1" gradientUnits="objectBoundingBox"><stop offset="0" stop-color="#1b97e0"/><stop offset="1" stop-color="#25bfdd"/></linearGradient></defs><g transform="translate(-154 -24)"><g transform="translate(154 24)"><path class="a" d="M52.949,28.857,53.474,28l-.525-.857a31.555,31.555,0,0,0-6.3-6.969,28.857,28.857,0,0,0-18.6-6.946A29.049,29.049,0,0,0,9.408,20.17a31.859,31.859,0,0,0-6.352,6.965L2.52,28l.536.865A31.86,31.86,0,0,0,9.408,35.83a29.049,29.049,0,0,0,18.641,6.942,28.857,28.857,0,0,0,18.6-6.946,31.541,31.541,0,0,0,6.3-6.97Zm-8.491,4.52a25.258,25.258,0,0,1-16.409,6.114,25.448,25.448,0,0,1-16.462-6.118A30.96,30.96,0,0,1,6.448,28a30.962,30.962,0,0,1,5.139-5.373,25.142,25.142,0,0,1,32.871,0A30.557,30.557,0,0,1,49.559,28,30.563,30.563,0,0,1,44.458,33.377Zm0,0"/><path class="a" d="M28,18.142A9.858,9.858,0,1,0,37.858,28,9.869,9.869,0,0,0,28,18.142Zm0,16.435A6.577,6.577,0,1,1,34.577,28,6.585,6.585,0,0,1,28,34.577Zm0,0"/><path class="a" d="M3.281,3.281h6.85V0H0V10.008H3.281Zm0,0"/><path class="a" d="M45.869,0V3.281h6.85v6.727H56V0Zm0,0"/><path class="a" d="M3.281,45.992H0V56H10.131V52.719H3.281Zm0,0"/><path class="a" d="M52.719,52.719h-6.85V56H56V45.992H52.719Zm0,0"/></g></g></svg>