<svg xmlns="http://www.w3.org/2000/svg" xmlns:xlink="http://www.w3.org/1999/xlink" width="86" height="86" viewBox="0 0 86 86"><defs><style>.a{stroke:#1dbcdd;fill:url(#a);}.b{clip-path:url(#b);}</style><linearGradient id="a" x1="0.5" x2="0.5" y2="1" gradientUnits="objectBoundingBox"><stop offset="0" stop-color="#1b97e0"/><stop offset="1" stop-color="#25bfdd"/></linearGradient><clipPath id="b"><rect class="a" width="86" height="86" transform="translate(160 24)"/></clipPath></defs><g class="b" transform="translate(-160 -24)"><g transform="translate(155.348 19.349)"><path class="a" d="M80.989,55.507l-.442.238a6.084,6.084,0,0,0-7.228-1.81l-.025.013-1.042.561a7.916,7.916,0,0,0-9.065-.819l-5.613,3.053H50.105a10.789,10.789,0,0,1-4.67-1.07l-1.027-.5a17.626,17.626,0,0,0-18.344,1.792c-.024.019-.048.037-.071.058l-2.481,2.208a8.6,8.6,0,0,1-3.247,1.81l-1.409-4.625a1.117,1.117,0,0,0-1.068-.791h-12A1.117,1.117,0,0,0,4.682,56.88l4,32.79a1.117,1.117,0,0,0,1.109.982H27.784a1.117,1.117,0,0,0,1.068-1.443l-2.364-7.757L33.851,76.8a4.43,4.43,0,0,1,3.232-.418l.07.015L52.13,79.153a19.38,19.38,0,0,0,11.976-1.691,1.1,1.1,0,0,0,.137-.08L90.146,59.6a1.117,1.117,0,0,0,.325-1.5A7.11,7.11,0,0,0,80.989,55.507Zm-6.648.415a3.814,3.814,0,0,1,4.171.922l-9.823,5.3-.577.3A8.516,8.516,0,0,0,66.766,60Zm-10.073-.276.026-.015a5.68,5.68,0,0,1,5.777.054l-4.994,2.689a8.486,8.486,0,0,0-3.19-1.436ZM10.777,88.418,7.052,57.861H16.96l9.316,30.557ZM63.042,75.494a17.132,17.132,0,0,1-10.513,1.461L37.59,74.2a6.659,6.659,0,0,0-4.855.658l-.052.031-6.871,4.344-4.9-16.055A10.845,10.845,0,0,0,25,60.9l2.446-2.178a15.4,15.4,0,0,1,15.993-1.538l1.027.5A13.036,13.036,0,0,0,50.1,58.974h9.963a6.3,6.3,0,0,1,6.18,5.117l-7.221-.327a43.242,43.242,0,0,0-7.859.363,1.117,1.117,0,1,0,.306,2.213A40.946,40.946,0,0,1,58.924,66l8.5.384h.051a1.117,1.117,0,0,0,1.117-1.117c0-.181-.008-.36-.019-.538l1.165-.614L82.05,57.471a4.879,4.879,0,0,1,5.872.941Z"/><path class="a" d="M14.328,83.8a3.516,3.516,0,1,0,3.516-3.516A3.516,3.516,0,0,0,14.328,83.8Zm3.516-1.283A1.282,1.282,0,1,1,16.562,83.8a1.282,1.282,0,0,1,1.282-1.283Z"/><path class="a" d="M56.144,16.809v-3.68a8.477,8.477,0,1,0-16.955,0v3.68a8.477,8.477,0,1,0,16.955,0Zm-14.721,0v-3.68a6.244,6.244,0,1,1,12.488,0v3.68a6.244,6.244,0,1,1-12.488,0Z"/><path class="a" d="M34,48.289H61.331a1.117,1.117,0,0,0,1.117-1.117V44.609H81.156a1.117,1.117,0,0,0,1.117-1.117V36.243a8.371,8.371,0,0,0-7.838-8.349,1.3,1.3,0,0,0-1.15.636,5.125,5.125,0,0,1-8.086-.2,1.117,1.117,0,0,0-.926-.453,8.28,8.28,0,0,0-4.108,1.2,9.388,9.388,0,0,0-6.552-3.25,1.358,1.358,0,0,0-1.152.67,6.014,6.014,0,0,1-9.489-.232,1.113,1.113,0,0,0-.926-.453,9.347,9.347,0,0,0-6.486,2.829c-.141.144-.275.294-.405.445a8.3,8.3,0,0,0-3.808-1.2,1.306,1.306,0,0,0-1.15.636,5.125,5.125,0,0,1-8.086-.2,1.12,1.12,0,0,0-.926-.453,8.368,8.368,0,0,0-8.155,8.364v7.249a1.117,1.117,0,0,0,1.117,1.117H32.885v2.564A1.117,1.117,0,0,0,34,48.289ZM63.8,30.148a7.36,7.36,0,0,0,11.019.029,6.14,6.14,0,0,1,5.224,6.066v6.132H62.448V35.21a9.344,9.344,0,0,0-1.032-4.276A6.037,6.037,0,0,1,63.8,30.148ZM41.565,28.081a8.249,8.249,0,0,0,12.459.03,7.174,7.174,0,0,1,6.191,7.1V46.055h-25.1V35.21A7.215,7.215,0,0,1,41.565,28.081Zm-26.3,14.294V36.243a6.176,6.176,0,0,1,5.445-6.094,7.36,7.36,0,0,0,11.018.028,6.093,6.093,0,0,1,2.18.769,9.357,9.357,0,0,0-1.021,4.264v7.165Z"/><path class="a" d="M76.755,20.136V16.915a7.559,7.559,0,1,0-15.119,0v3.222a7.559,7.559,0,1,0,15.119,0Zm-12.885,0V16.915a5.326,5.326,0,1,1,10.652,0v3.222a5.326,5.326,0,1,1-10.652,0Z"/><path class="a" d="M33.667,20.136V16.915a7.559,7.559,0,0,0-15.119,0v3.222a7.559,7.559,0,1,0,15.119,0Zm-12.885,0V16.915a5.326,5.326,0,1,1,10.652,0v3.222a5.326,5.326,0,0,1-10.652,0Z"/></g></g></svg>