<svg xmlns="http://www.w3.org/2000/svg" xmlns:xlink="http://www.w3.org/1999/xlink" width="86" height="86" viewBox="0 0 86 86"><defs><style>.a{stroke:#707070;}.a,.c{fill:url(#a);}.b{clip-path:url(#b);}.c{stroke:#1dbcdd;stroke-width:0.168px;}</style><linearGradient id="a" x1="0.5" x2="0.5" y2="1" gradientUnits="objectBoundingBox"><stop offset="0" stop-color="#1b97e0"/><stop offset="1" stop-color="#25bfdd"/></linearGradient><clipPath id="b"><rect class="a" width="86" height="86" transform="translate(160 24)"/></clipPath></defs><g class="b" transform="translate(-160 -24)"><g transform="translate(160 24)"><path class="c" d="M70.724,69.681a1.26,1.26,0,0,0-1.26,1.26V82.785a.7.7,0,0,1-.7.7H62V58.672a1.26,1.26,0,0,0-2.52,0V83.48H45.841L49.8,79.13a2.258,2.258,0,0,0,.545-1.812c0-.013,0-.026-.006-.038l-3.766-22.25L47.582,53.5a2.857,2.857,0,0,0,1.8.782,2.206,2.206,0,0,0,1.974-1.221h0L55.333,45.1l9.049,3.5a8.729,8.729,0,0,1,5.081,7.935v8.521a1.26,1.26,0,0,0,2.52,0V56.54a11.243,11.243,0,0,0-6.649-10.268l-.024-.01L50.249,40.43V36.9a11.8,11.8,0,0,0,4.467-7.765,5.453,5.453,0,0,0,3.2-1.307,5.348,5.348,0,0,0,.558-7.547V15.613a15.613,15.613,0,1,0-31.226,0V20.4a5.058,5.058,0,0,0-1.3,3.372,5.338,5.338,0,0,0,1.858,4.053,5.45,5.45,0,0,0,3.2,1.306,11.679,11.679,0,0,0,4.723,7.951V40.43L20.689,46.263l-.024.009A11.243,11.243,0,0,0,14.016,56.54V82.784A3.219,3.219,0,0,0,17.232,86h12a1.26,1.26,0,0,0,0-2.52H26.524V58.672a1.26,1.26,0,0,0-2.52,0V83.48H17.232a.7.7,0,0,1-.7-.7V56.54a8.729,8.729,0,0,1,5.08-7.934L30.659,45.1l3.973,7.962a2.206,2.206,0,0,0,1.975,1.221,2.855,2.855,0,0,0,1.8-.782l1.015,1.528L35.658,77.28c0,.013,0,.025-.006.038A2.259,2.259,0,0,0,36.2,79.13l3.954,4.35H35.114a1.26,1.26,0,0,0,0,2.52H68.769a3.219,3.219,0,0,0,3.215-3.215V70.941A1.26,1.26,0,0,0,70.724,69.681ZM52.973,44.187l-3.7,7.423-4.454-3.164L49.39,42.8Zm-7.446,7.855-.96,1.446H41.425l-.96-1.446L43,50.244ZM38.254,40.837V38.479a12.782,12.782,0,0,0,4.764.9,11.827,11.827,0,0,0,4.712-.982v2.447L43,46.69Zm19-17.063a2.822,2.822,0,0,1-.981,2.142,2.934,2.934,0,0,1-1.455.67V20.963A2.85,2.85,0,0,1,57.257,23.774Zm-26.35,2.812a2.846,2.846,0,0,1-2.436-2.812,2.992,2.992,0,0,1,2.436-2.748Zm.068-8.127a6.228,6.228,0,0,0-1.2.271V15.613a13.093,13.093,0,1,1,26.187,0v3.031a5.6,5.6,0,0,0-1.136-.22c0-1.216.011-.981-3.966-5.256a2.241,2.241,0,0,0-2.862-.349,24.288,24.288,0,0,1-14.683,3.953A2.24,2.24,0,0,0,30.975,18.459Zm2.452,9.119V19.3a26.921,26.921,0,0,0,15.745-4.247c1.824,1.958,2.811,2.985,3.13,3.376v9.144a9.439,9.439,0,0,1-18.875,0ZM36.722,51.61l-3.7-7.423L36.595,42.8,41.17,48.45Zm1.445,25.942,3.646-21.544h2.363l3.646,21.544L43,82.863Z"/></g></g></svg>