<svg xmlns="http://www.w3.org/2000/svg" xmlns:xlink="http://www.w3.org/1999/xlink" width="86" height="86" viewBox="0 0 86 86"><defs><style>.a{stroke:#1dbcdd;fill:url(#a);}.b{clip-path:url(#b);}</style><linearGradient id="a" x1="0.5" x2="0.5" y2="1" gradientUnits="objectBoundingBox"><stop offset="0" stop-color="#1b97e0"/><stop offset="1" stop-color="#25bfdd"/></linearGradient><clipPath id="b"><rect class="a" width="86" height="86" transform="translate(160 24)"/></clipPath></defs><g class="b" transform="translate(-160 -24)"><g transform="translate(160 24)"><path class="a" d="M84.74,78.05H79.552V58.4a1.26,1.26,0,0,0-2.52,0V78.05H65.978V34.758H77.032V52.517a1.26,1.26,0,0,0,2.52,0V33.5a1.26,1.26,0,0,0-1.26-1.26H64.718a1.26,1.26,0,0,0-1.26,1.26V78.05h-2.91V40.285a1.26,1.26,0,0,0-1.26-1.26H45.715a1.26,1.26,0,0,0-1.26,1.26V78.05h-2.91V50.466a1.26,1.26,0,0,0-1.26-1.26H26.711a1.26,1.26,0,0,0-1.26,1.26V78.05h-2.91V58.61a1.26,1.26,0,0,0-1.26-1.26H7.707a1.26,1.26,0,0,0-1.26,1.26V78.05H1.26A1.26,1.26,0,0,0,0,79.31v5.43A1.26,1.26,0,0,0,1.26,86H14.865a1.26,1.26,0,0,0,0-2.52H2.52V80.57H83.48V83.48H20.744a1.26,1.26,0,0,0,0,2.52h64A1.26,1.26,0,0,0,86,84.74V79.31a1.26,1.26,0,0,0-1.26-1.26ZM46.975,41.545H58.029V78.05H46.975Zm-19,10.181H39.025V78.05H27.971Zm-19,8.144H20.022V78.05H8.967Z"/><path class="a" d="M7.538,45.956H26.71a3.984,3.984,0,0,0,2.931-1.289L45.257,27.631H55.895a3.949,3.949,0,0,0,2.811-1.164l12.9-12.9v3.98a1.26,1.26,0,0,0,1.26,1.26h5.429a1.26,1.26,0,0,0,1.26-1.26V3.974A3.979,3.979,0,0,0,75.578,0H62a1.26,1.26,0,0,0-1.26,1.26V6.69A1.26,1.26,0,0,0,62,7.95h3.978L54.25,19.683H43.509a3.983,3.983,0,0,0-2.929,1.288L24.962,38.008H21.488a1.26,1.26,0,0,0,0,2.52h4.028a1.259,1.259,0,0,0,.929-.409L42.437,22.674a1.457,1.457,0,0,1,1.072-.471H54.771a1.259,1.259,0,0,0,.891-.369L69.914,7.581a1.26,1.26,0,0,0-.891-2.151h-5.76V2.52H75.577a1.456,1.456,0,0,1,1.455,1.455V16.29H74.123V10.528a1.26,1.26,0,0,0-2.151-.891L56.924,24.686a1.446,1.446,0,0,1-1.029.426H44.7a1.26,1.26,0,0,0-.929.409L27.784,42.965a1.458,1.458,0,0,1-1.073.471H8.8V40.527h6.811a1.26,1.26,0,1,0,0-2.52H7.538a1.26,1.26,0,0,0-1.26,1.26V44.7a1.26,1.26,0,0,0,1.26,1.26Z"/></g></g></svg>