<svg xmlns="http://www.w3.org/2000/svg" xmlns:xlink="http://www.w3.org/1999/xlink" width="86" height="86" viewBox="0 0 86 86"><defs><style>.a{stroke:#1dbcdd;fill:url(#a);}.b{clip-path:url(#b);}</style><linearGradient id="a" x1="0.5" x2="0.5" y2="1" gradientUnits="objectBoundingBox"><stop offset="0" stop-color="#1b97e0"/><stop offset="1" stop-color="#25bfdd"/></linearGradient><clipPath id="b"><rect class="a" width="86" height="86" transform="translate(160 24)"/></clipPath></defs><g class="b" transform="translate(-160 -24)"><path class="a" d="M43.856.857A43,43,0,1,0,74.261,13.451,43,43,0,0,0,43.856.857ZM14.9,14.9A41.108,41.108,0,0,1,24.28,7.877l4.924,3.7a14.262,14.262,0,0,0,1.355.9A12.222,12.222,0,0,1,34.4,16.041l2.848,4.106a3.437,3.437,0,0,1-.1,4.071l-1.321,1.713a2.019,2.019,0,0,1-1.847.767l-1.5-.192a6.435,6.435,0,0,0-6.388,3.154,2.044,2.044,0,0,1-2.044.965l-3.428-.435a6.616,6.616,0,0,0-6.345,2.868,6,6,0,0,0-.1,6.572l2.285,3.609A5.673,5.673,0,0,0,23.9,45.2l2.353-1.261a3.314,3.314,0,0,1,3.253.079l4.465,2.679a2.119,2.119,0,0,0,1.148.3,5.265,5.265,0,0,1,4.353,2.319l2.184,3.045c.17.236.351.468.539.69l2.858,3.362a.432.432,0,0,1,.1.358.509.509,0,0,1-.2.305l-4.293,3.3a7.963,7.963,0,0,0-2.775,3.992l-1.443,4.681a1.9,1.9,0,0,1-.358.661l-1.4,1.689a9.011,9.011,0,0,0-2.088,4.949,1.2,1.2,0,0,1-.733,1,.092.092,0,0,1-.1-.017.185.185,0,0,1-.034-.088l-1.316-7.9a7.178,7.178,0,0,0-1.368-3.161l-4.847-6.356a4.59,4.59,0,0,1-.778-1.566l-1.6-5.772a7.1,7.1,0,0,0-4.955-4.934l-.348-.1a3.456,3.456,0,0,1-1.454-.814l-2.984-2.809a5.732,5.732,0,0,1-1.022-1.285,7.682,7.682,0,0,0-7.833-3.726A40.635,40.635,0,0,1,14.9,14.9Zm57.9,57.9a40.944,40.944,0,0,1-69.9-28.952q0-1.463.1-2.909l.327-.065a5.623,5.623,0,0,1,5.934,2.7,7.788,7.788,0,0,0,1.389,1.746l2.984,2.808a5.52,5.52,0,0,0,2.322,1.3l.348.1a5.039,5.039,0,0,1,3.515,3.5l1.6,5.772a6.639,6.639,0,0,0,1.124,2.264l4.847,6.356a5.115,5.115,0,0,1,.974,2.252l1.317,7.9a2.151,2.151,0,0,0,2.958,1.662,3.252,3.252,0,0,0,1.985-2.71,6.965,6.965,0,0,1,1.621-3.82l1.4-1.689a3.955,3.955,0,0,0,.741-1.369l1.443-4.681A5.919,5.919,0,0,1,41.912,62l4.293-3.3a2.543,2.543,0,0,0,.983-1.611,2.5,2.5,0,0,0-.562-2.014l-2.858-3.362c-.152-.179-.3-.366-.435-.557l-2.185-3.045a7.322,7.322,0,0,0-6.077-3.176.069.069,0,0,1-.037-.01l-4.465-2.679a5.379,5.379,0,0,0-5.282-.128l-2.352,1.26A3.609,3.609,0,0,1,18.2,42.139L15.913,38.53a3.94,3.94,0,0,1,.067-4.319,4.57,4.57,0,0,1,4.383-1.981l3.428.435a4.1,4.1,0,0,0,4.08-1.97,4.384,4.384,0,0,1,4.351-2.148l1.5.192a4.084,4.084,0,0,0,3.735-1.551l1.321-1.713a5.485,5.485,0,0,0,.164-6.5L36.093,14.87a14.294,14.294,0,0,0-4.5-4.163,12.188,12.188,0,0,1-1.159-.771l-4.122-3.1a41.043,41.043,0,0,1,42.8,4.789l-1.07,1.492a54.215,54.215,0,0,0-6.82,9.245l-1.554,2.657a3.082,3.082,0,0,0,.37,3.553,4.674,4.674,0,0,0,2.949,1.563l.746.092a6.4,6.4,0,0,1,5.338,4.491,6.257,6.257,0,0,1-1.842,6.488l-7.357,6.531a4.389,4.389,0,0,0-1.456,3.314v1.734a3.46,3.46,0,0,0,1.569,2.948A5.977,5.977,0,0,1,62.7,60.2l.164,1.689a2.984,2.984,0,0,0,3.014,2.7H70.2a6.556,6.556,0,0,0,6.037-3.9l.26-.572a6.02,6.02,0,0,1,5.28-3.612l1.018-.041.032,0A40.76,40.76,0,0,1,72.808,72.808ZM83.449,54.342l-.505.051c-.08.008-.16.014-.238.017l-1.017.046a8.073,8.073,0,0,0-7.069,4.849l-.26.551A4.5,4.5,0,0,1,70.2,62.529H65.876a.945.945,0,0,1-.978-.844l-.173-1.71A7.983,7.983,0,0,0,61.1,54a1.4,1.4,0,0,1-.628-1.211V51.051a2.332,2.332,0,0,1,.762-1.773l7.375-6.531a8.313,8.313,0,0,0,2.438-8.625,8.462,8.462,0,0,0-7.058-5.935l-.749-.092a2.623,2.623,0,0,1-1.655-.876,1.035,1.035,0,0,1-.137-1.171L63,23.4a52.158,52.158,0,0,1,6.6-8.938,1.016,1.016,0,0,0,.079-.1L70.7,12.94q1.081.942,2.107,1.965A40.676,40.676,0,0,1,84.8,43.856a41.172,41.172,0,0,1-1.351,10.486Z" transform="translate(159.145 23.144)"/></g></svg>